HIERARCHY
ROOT Hips
{
	OFFSET 0.00000 0.00000 0.00000
	CHANNELS 6 Xposition Yposition Zposition Yrotation Zrotation Xrotation 
	JOINT Lumbar
	{
		OFFSET 0 0 0
		CHANNELS 3 Zrotation Xrotation Yrotation
		JOINT Neck
		{
			OFFSET 0.00 0.2701 0.00
			CHANNELS 3 Zrotation Xrotation Yrotation
			End Site
			{
				OFFSET 0.00 0.1379 0.00
			}
		}
		JOINT RightShoulder
		{
			OFFSET 0.0119 0.2289 0.1181
			CHANNELS 3 Zrotation Xrotation Yrotation
			JOINT RightElbow
			{
				OFFSET 0.00 -0.1475 0.00
				CHANNELS 2 Zrotation Yrotation
				JOINT RightWrist
				{
					OFFSET 0.00 -0.1605 0.00
					CHANNELS 2 Zrotation Xrotation
					End Site
					{
						OFFSET 0.0040 -0.1068 0.0006
					}
				}
			}
		}
		JOINT LeftShoulder
		{
			OFFSET 0.0119 0.2289 -0.1181
			CHANNELS 3 Zrotation Xrotation Yrotation
			JOINT LeftElbow
			{
				OFFSET 0.00 -0.1475 0.00
				CHANNELS 2 Zrotation Yrotation
				JOINT LeftWrist
				{
					OFFSET 0.00 -0.1605 0.00
					CHANNELS 2 Zrotation Xrotation
					End Site
					{
						OFFSET 0.0040 -0.1068 -0.0006
					}
				}
			}
		}
	}
	JOINT RightHip
	{
		OFFSET 0.0316 -0.0424 0.0458
		CHANNELS 3 Zrotation Xrotation Yrotation
		JOINT RightKnee
		{
			OFFSET 0.00 -0.2438 0.00
			CHANNELS 1 Zrotation
			JOINT RightAnkle
			{
				OFFSET 0.00 -0.2449 0.00
				CHANNELS 3 Zrotation Xrotation Yrotation
				End Site
				{
					OFFSET 0.1237 -0.0542 0.0051
				}
			}
		}
	}
	JOINT LeftHip
	{
		OFFSET 0.0316 -0.0424 -0.0458
		CHANNELS 3 Zrotation Xrotation Yrotation
		JOINT LeftKnee
		{
			OFFSET 0.00 -0.2438 0.00
			CHANNELS 1 Zrotation
			JOINT LeftAnkle
			{
				OFFSET 0.00 -0.2449 0.00
				CHANNELS 3 Zrotation Xrotation Yrotation
				End Site
				{
					OFFSET 0.1237 -0.0542 -0.0051
				}
			}
		}
	}
}
MOTION
Frames: 28
Frame Time: 0.02
-0.09744 0.00192 0.02331 -185.21821 -39.30163 -10.95036 42.84029 -3.71168 12.38968 -5.29019 6.24112 -2.11651 136.12945 -64.52743 55.62811 5.79566 87.17054 11.30009 -1.47852 -7.77186 27.44773 5.63039 44.55721 -86.63043 3.19163 -0.18614 43.15188 -3.88852 -12.33505 -25.57517 -7.22693 -1.96506 -3.20231 51.54274 15.06092 0.69109 -32.62758 -6.90335 1.52407 2.99919
-0.09822 0.00187 0.0251 -185.90348 -39.05336 -11.45164 42.67736 -3.90329 12.45005 -5.47896 6.34563 -2.11656 136.34198 -64.76343 55.62853 5.78781 87.63876 11.36363 -1.36662 -8.67973 27.9527 6.05039 44.01158 -88.27114 3.59302 -0.68893 43.18141 -3.84742 -12.38367 -25.94477 -7.26463 -1.87082 -3.16159 51.43606 15.27271 0.59912 -33.13132 -6.87806 1.57974 3.02464
-0.09893 0.00171 0.02689 -186.55662 -38.79643 -11.87871 42.48816 -4.09189 12.42484 -5.63706 6.39769 -2.11662 136.2446 -64.89592 55.62874 5.78955 88.06713 11.54424 -1.2706 -9.52626 28.43612 6.31327 43.11858 -91.34562 4.26903 -1.63485 43.18528 -3.8426 -12.37899 -26.26379 -7.30197 -1.77921 -3.12421 51.3478 15.46289 0.6268 -33.68112 -6.85639 1.62387 3.04448
-0.09968 0.0016 0.02869 -187.21581 -38.54706 -12.332 42.31488 -4.28017 12.43722 -5.80973 6.47349 -2.11667 136.27959 -65.07091 55.62877 5.78976 88.49728 11.66546 -1.17015 -10.38236 28.9221 6.62385 42.36718 -93.6027 4.79687 -2.32438 43.1969 -3.82758 -12.41047 -26.59682 -7.33917 -1.68659 -3.0852 51.25072 15.65581 0.60204 -34.20301 -6.83283 1.67277 3.06662
-0.10042 0.0015 0.03046 -187.91548 -38.28142 -12.81902 42.12354 -4.47552 12.4528 -5.98024 6.5499 -2.11672 136.32691 -65.26917 55.62903 5.78848 88.98289 11.81574 -1.06182 -11.32203 29.44272 7.0314 41.67589 -96.51975 5.41939 -3.23211 43.22715 -3.78633 -12.39739 -26.97161 -7.37761 -1.592 -3.04604 51.15533 15.87959 0.56384 -34.75561 -6.81007 1.72444 3.09018
-0.10115 0.00134 0.03229 -188.52142 -38.04825 -13.21733 41.96446 -4.65496 12.44257 -6.14759 6.61251 -2.11677 136.28323 -65.39342 55.6291 5.78877 89.34891 11.93176 -0.97106 -12.07092 29.88305 7.20356 40.78296 -98.4288 5.91246 -3.79969 43.21199 -3.80749 -12.45957 -27.24537 -7.41339 -1.50285 -3.00837 51.06097 16.03327 0.58316 -35.25405 -6.78665 1.76736 3.10934
-0.10186 0.00104 0.03429 -188.87733 -37.90378 -13.38932 41.896 -4.79731 12.37813 -6.31574 6.64958 -2.11678 136.07314 -65.33095 55.62884 5.78855 89.39146 11.92949 -0.93956 -12.30458 30.12489 6.7303 39.3849 -97.06942 5.96801 -3.27331 43.07407 -4.00112 -12.7758 -27.25928 -7.44211 -1.42477 -2.97227 50.9638 16.00283 0.74423 -35.59962 -6.75975 1.78795 3.11718
-0.10256 0.00068 0.03636 -189.13903 -37.79303 -13.47415 41.86189 -4.92269 12.29158 -6.48124 6.67458 -2.11679 135.78415 -65.19831 55.62851 5.78853 89.31733 11.88735 -0.92256 -12.34807 30.28303 6.03173 37.80364 -94.67434 5.88631 -2.39917 42.8917 -4.25477 -13.16325 -27.1716 -7.46814 -1.3528 -2.93793 50.86732 15.90187 0.95818 -35.88748 -6.73222 1.80011 3.1208
-0.10326 0.00036 0.03839 -189.44294 -37.66892 -13.59836 41.81542 -5.05195 12.21808 -6.64666 6.70523 -2.1168 135.52851 -65.10217 55.62824 5.78857 89.30064 11.85997 -0.88836 -12.47992 30.46733 5.45871 36.32796 -92.84637 5.87668 -1.71619 42.73171 -4.47501 -13.49566 -27.12549 -7.49528 -1.28032 -2.90398 50.77125 15.8302 1.14019 -36.19654 -6.7055 1.81673 3.12669
-0.10398 0 0.04044 -189.74925 -37.53599 -13.72128 41.75448 -5.1973 12.12922 -6.81679 6.73331 -2.1168 135.27125 -64.98312 55.6278 5.78854 89.26428 11.85127 -0.89766 -12.60151 30.70092 4.78309 34.74281 -90.66399 5.83689 -0.90937 42.56159 -4.72211 -13.92107 -27.09688 -7.52289 -1.19833 -2.86512 50.67254 15.76883 1.35759 -36.52868 -6.67671 1.83057 3.13103
-0.10466 -0.00028 0.04247 -190.0275 -37.4298 -13.82677 41.73193 -5.30509 12.06782 -6.97644 6.76461 -2.11681 135.00393 -64.89638 55.62772 5.78849 89.24099 11.79223 -0.82196 -12.70016 30.81242 4.26891 33.35046 -88.9513 5.8222 -0.2713 42.40245 -4.9274 -14.17154 -27.00858 -7.54887 -1.13757 -2.83685 50.57955 15.67031 1.51486 -36.79813 -6.65204 1.84801 3.13751
-0.10525 -0.00036 0.04442 -190.26038 -37.38722 -13.90865 41.8094 -5.3137 12.0917 -7.11171 6.80755 -2.11682 134.72056 -64.91703 55.62873 5.78822 89.28966 11.60706 -0.48743 -12.78099 30.60572 4.26298 32.50487 -88.82111 5.92341 -0.19109 42.28373 -4.99945 -13.9114 -26.7783 -7.57106 -1.13398 -2.83749 50.49979 15.47961 1.47026 -36.91104 -6.63879 1.88046 3.15239
-0.10581 -0.00037 0.04634 -190.46668 -37.37086 -13.9757 41.92404 -5.28504 12.14364 -7.23591 6.85442 -2.11683 134.43276 -64.97288 55.63011 5.78787 89.35439 11.37163 -0.07058 -12.84545 30.27959 4.42645 31.86684 -89.18886 6.0514 -0.28991 42.17797 -5.02772 -13.47487 -26.49213 -7.59169 -1.15153 -2.8487 50.42623 15.2552 1.36654 -36.96217 -6.62971 1.91635 3.16935
-0.10638 -0.00041 0.04826 -190.67944 -37.34373 -14.04787 42.02021 -5.27317 12.18056 -7.36283 6.8999 -2.11684 134.15368 -65.01257 55.63127 5.78757 89.40728 11.15628 0.29509 -12.91879 30.00901 4.50867 31.15584 -89.29704 6.15648 -0.29927 42.06677 -5.0779 -13.12604 -26.23299 -7.61304 -1.15932 -2.85497 50.35115 15.05105 1.30487 -37.03978 -6.61876 1.9487 3.18441
-0.10697 -0.00045 0.05022 -190.91282 -37.31265 -14.12402 42.12412 -5.26126 12.22636 -7.49958 6.94334 -2.11685 133.84364 -65.05073 55.63262 5.78722 89.47534 10.95042 0.71815 -12.98074 29.72939 4.60203 30.34907 -89.4996 6.2999 -0.32823 41.95163 -5.12177 -12.74795 -25.96309 -7.63431 -1.16787 -2.86182 50.27015 14.82423 1.18291 -37.12215 -6.60769 1.98896 3.20327
-0.1075 -0.00048 0.05209 -191.09791 -37.29594 -14.18921 42.22041 -5.24088 12.26047 -7.61303 6.992 -2.11686 133.59773 -65.10103 55.63368 5.78695 89.51701 10.71445 1.04168 -13.06328 29.44225 4.71399 29.79224 -89.65081 6.37458 -0.36676 41.84893 -5.16749 -12.38787 -25.70403 -7.65534 -1.1799 -2.87 50.20354 14.63672 1.16941 -37.18068 -6.59787 2.01386 3.21485
-0.10786 -0.00049 0.05373 -191.15857 -37.30927 -14.23073 42.28524 -5.20565 12.25706 -7.66673 7.05525 -2.11686 133.53419 -65.1796 55.63388 5.7869 89.4836 10.39878 1.06794 -13.22222 29.15632 4.84908 29.88727 -89.41683 6.22597 -0.35796 41.77286 -5.22948 -12.12076 -25.48624 -7.6767 -1.19547 -2.87887 50.16994 14.57338 1.48977 -37.1884 -6.59025 1.99389 3.20498
-0.10816 -0.00049 0.05527 -191.17145 -37.33654 -14.26158 42.34105 -5.16336 12.24073 -7.69698 7.1234 -2.11687 133.53509 -65.26892 55.63376 5.78693 89.42341 10.05668 0.99162 -13.40034 28.86887 4.99573 30.2253 -89.13643 6.012 -0.35845 41.70994 -5.29437 -11.87703 -25.28234 -7.69778 -1.214 -2.8888 50.15144 14.54973 1.91734 -37.17442 -6.58378 1.95869 3.18787
-0.10848 -0.0005 0.05685 -191.2052 -37.35946 -14.29593 42.40184 -5.12479 12.22941 -7.73682 7.18873 -2.11687 133.50405 -65.3515 55.63376 5.78693 89.37486 9.73228 0.96391 -13.56065 28.58716 5.12955 30.44491 -88.96878 5.84747 -0.3779 41.64426 -5.35739 -11.62279 -25.07405 -7.7186 -1.23168 -2.89847 50.12962 14.50345 2.28243 -37.17089 -6.57691 1.93156 3.17464
-0.10884 -0.0005 0.05847 -191.24193 -37.37522 -14.33566 42.46077 -5.08278 12.22274 -7.78097 7.25699 -2.11688 133.4836 -65.44307 55.6339 5.78691 89.32877 9.38084 0.93093 -13.75932 28.27939 5.30109 30.70546 -88.45269 5.6043 -0.31148 41.56551 -5.42151 -11.36387 -24.85528 -7.741 -1.24784 -2.9075 50.09362 14.4754 2.70344 -37.16325 -6.56963 1.8997 3.159
-0.1091 -0.00052 0.05997 -191.26097 -37.4085 -14.36152 42.52025 -5.04671 12.2029 -7.81046 7.31987 -2.11688 133.45698 -65.51805 55.63367 5.78695 89.27132 9.08166 0.88315 -13.88207 28.02773 5.39468 30.93561 -88.61765 5.50423 -0.41633 41.51684 -5.48429 -11.12011 -24.6628 -7.76008 -1.26784 -2.91808 50.08997 14.41921 3.03436 -37.15912 -6.56344 1.87402 3.14662
-0.10917 -0.00056 0.06116 -191.24715 -37.48956 -14.35459 42.58918 -5.02928 12.15031 -7.80767 7.37019 -2.11689 133.39304 -65.5442 55.63234 5.78716 89.18647 8.9202 0.82212 -13.79797 27.9267 5.26926 31.02331 -90.91295 5.85758 -1.05726 41.5491 -5.54561 -10.93537 -24.53699 -7.7699 -1.29544 -2.93158 50.17761 14.27612 3.08949 -37.1763 -6.56004 1.86912 3.14504
-0.10914 -0.00061 0.06223 -191.21643 -37.58706 -14.33352 42.65767 -5.01815 12.08468 -7.79058 7.41427 -2.11689 133.32148 -65.55318 55.63067 5.78742 89.09156 8.81482 0.74891 -13.63567 27.88356 5.06438 31.07104 -93.85165 6.34965 -1.85813 41.61105 -5.60535 -10.76252 -24.43831 -7.77644 -1.32708 -2.94672 50.29607 14.1034 3.05094 -37.19684 -6.55767 1.87094 3.14694
-0.10915 -0.00066 0.06335 -191.19082 -37.67514 -14.31723 42.72247 -5.00402 12.02461 -7.77841 7.45886 -2.11689 133.25644 -65.57014 55.62924 5.78764 89.00288 8.69271 0.67911 -13.5042 27.81775 4.89563 31.1351 -96.33286 6.74972 -2.54076 41.6585 -5.66382 -10.56909 -24.32862 -7.7846 -1.35833 -2.9618 50.39687 13.94412 3.05579 -37.21211 -6.55476 1.86972 3.14722
-0.10919 -0.00071 0.06449 -191.17464 -37.77221 -14.30789 42.80357 -4.9903 11.96574 -7.77191 7.51334 -2.1169 133.18094 -65.58679 55.62743 5.78792 88.90617 8.53314 0.61446 -13.39269 27.73694 4.72716 31.21459 -99.49619 7.26779 -3.41211 41.7102 -5.72992 -10.4371 -24.21218 -7.79219 -1.38379 -2.97414 50.51419 13.78639 3.05987 -37.24262 -6.55219 1.86802 3.14748
-0.10915 -0.00076 0.06556 -191.1351 -37.85397 -14.28036 42.85051 -4.97717 11.90134 -7.75073 7.5458 -2.1169 133.1243 -65.59978 55.62634 5.7881 88.82426 8.46471 0.5379 -13.22149 27.70055 4.53927 31.25042 -101.40913 7.57637 -3.93328 41.76051 -5.78076 -10.18388 -24.11814 -7.80023 -1.42199 -2.99244 50.60351 13.6178 3.04315 -37.2422 -6.54915 1.86897 3.14863
-0.10892 -0.00084 0.06647 -191.03809 -37.89181 -14.21027 42.80485 -4.96554 11.82516 -7.69059 7.51812 -2.11691 133.12367 -65.60769 55.62743 5.78793 88.78489 8.6395 0.42855 -12.89838 27.77799 4.31512 31.16429 -99.56387 7.25132 -3.40422 41.79495 -5.781 -9.55711 -24.06293 -7.80994 -1.49643 -3.02774 50.61371 13.42696 2.9807 -37.15781 -6.54458 1.87684 3.15194
-0.10863 -0.00093 0.06732 -190.91762 -37.91309 -14.1216 42.72439 -4.95411 11.74354 -7.61665 7.46874 -2.11691 133.1416 -65.61234 55.62924 5.78768 88.761 8.90341 0.30864 -12.51903 27.89708 4.07448 31.03658 -96.46545 6.71499 -2.52523 41.82813 -5.7675 -8.81464 -24.03322 -7.8203 -1.5832 -3.06881 50.59336 13.22589 2.90193 -37.04173 -6.5395 1.88699 3.15596
